<svg xmlns="http://www.w3.org/2000/svg" xmlns:xlink="http://www.w3.org/1999/xlink" width="224" zoomAndPan="magnify" viewBox="0 0 168 36.000001" height="48" preserveAspectRatio="xMidYMid meet" version="1.0"><defs><g/></defs><g fill="#000000" fill-opacity="1"><g transform="translate(2.669339, 26.270272)"><g><path d="M 10.539062 -20.785156 C 5.855469 -20.785156 1.757812 -20.492188 1.757812 -20.492188 L 1.757812 0 L 9.367188 0 L 9.367188 -6.585938 C 9.367188 -6.585938 10.832031 -6.441406 12.003906 -6.441406 C 16.980469 -6.441406 19.90625 -9.367188 19.90625 -13.613281 C 19.90625 -17.859375 16.980469 -20.785156 10.539062 -20.785156 Z M 9.367188 -12.003906 L 9.367188 -15.222656 L 10.539062 -15.222656 C 11.5625 -15.222656 12.296875 -14.492188 12.296875 -13.613281 C 12.296875 -12.734375 11.5625 -12.003906 10.539062 -12.003906 Z M 9.367188 -12.003906 "/></g></g></g><g fill="#000000" fill-opacity="1"><g transform="translate(23.450345, 26.270272)"><g><path d="M 16.25 -20.492188 L 6.292969 -20.492188 L 0.292969 0 L 8.78125 0 L 9.367188 -2.925781 L 13.175781 -2.925781 L 13.761719 0 L 22.25 0 C 22.25 0 16.277344 -20.375 16.25 -20.492188 Z M 10.246094 -7.613281 L 11.273438 -12.882812 L 12.296875 -7.613281 Z M 10.246094 -7.613281 "/></g></g></g><g fill="#000000" fill-opacity="1"><g transform="translate(45.987487, 26.270272)"><g><path d="M 8.050781 -5.5625 C 5.125 -5.5625 3.074219 -7.464844 3.074219 -7.464844 L 0.292969 -3.074219 C 0.292969 -3.074219 2.925781 0.4375 9.367188 0.4375 C 14.492188 0.4375 17.710938 -2.78125 17.710938 -6.148438 C 17.710938 -12.589844 9.808594 -12.589844 9.808594 -14.054688 C 9.808594 -14.492188 10.246094 -14.929688 10.980469 -14.929688 C 13.027344 -14.929688 14.785156 -13.320312 14.785156 -13.320312 L 17.566406 -17.710938 C 17.566406 -17.710938 14.929688 -20.933594 9.660156 -20.933594 C 4.539062 -20.933594 1.316406 -17.710938 1.316406 -14.34375 C 1.316406 -7.90625 9.222656 -7.90625 9.222656 -6.441406 C 9.222656 -6 8.78125 -5.5625 8.050781 -5.5625 Z M 8.050781 -5.5625 "/></g></g></g><g fill="#000000" fill-opacity="1"><g transform="translate(64.280626, 26.270272)"><g><path d="M 15.808594 -10.246094 C 15.808594 -8.199219 14.34375 -6.734375 12.589844 -6.734375 C 10.832031 -6.734375 9.367188 -8.199219 9.367188 -10.246094 C 9.367188 -12.296875 10.832031 -13.761719 12.589844 -13.761719 C 14.34375 -13.761719 15.808594 -12.296875 15.808594 -10.246094 Z M 24.007812 -10.246094 C 24.007812 -16.25 19.324219 -20.933594 12.589844 -20.933594 C 5.855469 -20.933594 1.171875 -16.25 1.171875 -10.246094 C 1.171875 -4.246094 5.855469 0.4375 12.589844 0.4375 C 19.324219 0.4375 24.007812 -4.246094 24.007812 -10.246094 Z M 24.007812 -10.246094 "/></g></g></g><g fill="#000000" fill-opacity="1"><g transform="translate(89.451981, 26.270272)"><g><path d="M 21.664062 -20.492188 L 12.882812 -20.492188 L 9.367188 -12.296875 L 9.367188 -20.492188 L 1.757812 -20.492188 L 1.757812 0 L 9.367188 0 L 9.367188 -8.199219 L 13.46875 0 L 22.25 0 L 16.101562 -10.246094 Z M 21.664062 -20.492188 "/></g></g></g><g fill="#000000" fill-opacity="1"><g transform="translate(111.403745, 26.270272)"><g><path d="M 15.808594 -10.246094 C 15.808594 -8.199219 14.34375 -6.734375 12.589844 -6.734375 C 10.832031 -6.734375 9.367188 -8.199219 9.367188 -10.246094 C 9.367188 -12.296875 10.832031 -13.761719 12.589844 -13.761719 C 14.34375 -13.761719 15.808594 -12.296875 15.808594 -10.246094 Z M 24.007812 -10.246094 C 24.007812 -16.25 19.324219 -20.933594 12.589844 -20.933594 C 5.855469 -20.933594 1.171875 -16.25 1.171875 -10.246094 C 1.171875 -4.246094 5.855469 0.4375 12.589844 0.4375 C 19.324219 0.4375 24.007812 -4.246094 24.007812 -10.246094 Z M 24.007812 -10.246094 "/></g></g></g><g fill="#000000" fill-opacity="1"><g transform="translate(136.5751, 26.270272)"><g><path d="M 14.34375 0 L 22.835938 0 L 22.835938 -20.492188 L 15.222656 -20.492188 L 15.222656 -11.417969 L 10.246094 -20.492188 L 1.757812 -20.492188 L 1.757812 0 L 9.367188 0 L 9.367188 -9.074219 Z M 14.34375 0 "/></g></g></g></svg>